<svg width="406.35499267578126px" height="120.8px" xmlns="http://www.w3.org/2000/svg" viewBox="46.82250366210937 14.600000000000001 406.35499267578126 120.8" style="background: none;" preserveAspectRatio="xMidYMid"><defs><filter id="editing-marble" x="-100%" y="-100%" width="300%" height="300%"><feFlood flood-color="#000000" result="flood-1"></feFlood><feComposite operator="in" in="flood-1" in2="SourceAlpha" result="flood-2"></feComposite><feTurbulence baseFrequency="0.07" type="fractalNoise" numOctaves="1" seed="2" result="bs-1"></feTurbulence><feGaussianBlur stdDeviation="1" in="flood-2" result="bs-2"></feGaussianBlur><feDisplacementMap scale="110" in="bs-2" in2="bs-1" result="bs-3"></feDisplacementMap><feComposite operator="in" in="bs-3" in2="SourceAlpha" result="texture"></feComposite><feMerge><feMergeNode in="SourceGraphic"></feMergeNode><feMergeNode in="texture"></feMergeNode></feMerge></filter></defs><g filter="url(#editing-marble)"><g transform="translate(107.72502422332764, 104.44000053405762)"><path d="M2.37-3.46L3.39-6.85L3.39-6.85Q8.45-3.39 13.15-3.39L13.15-3.39L13.15-3.39Q17.86-3.39 20.51-5.57L20.51-5.57L20.51-5.57Q23.17-7.74 23.17-11.58L23.17-11.58L23.17-11.58Q23.17-14.72 21.25-16.51L21.25-16.51L21.25-16.51Q19.20-18.50 14.85-20.48L14.85-20.48L14.85-20.48Q13.57-21.12 13.06-21.38L13.06-21.38L13.06-21.38Q8.70-23.42 6.30-26.11L6.30-26.11L6.30-26.11Q3.90-28.80 3.90-33.73L3.90-33.73L3.90-33.73Q3.90-38.66 7.58-41.79L7.58-41.79L7.58-41.79Q11.26-44.93 16.45-44.93L16.45-44.93L16.45-44.93Q21.63-44.93 25.92-43.07L25.92-43.07L24.96-39.55L24.96-39.55Q21.12-40.83 17.47-40.83L17.47-40.83L17.47-40.83Q13.82-40.83 11.33-38.94L11.33-38.94L11.33-38.94Q8.83-37.06 8.83-33.98L8.83-33.98L8.83-33.98Q8.83-30.91 10.56-29.06L10.56-29.06L10.56-29.06Q12.54-27.01 17.60-24.70L17.60-24.70L17.60-24.70Q22.21-22.53 23.87-21.06L23.87-21.06L23.87-21.06Q26.18-18.94 26.75-17.66L26.75-17.66L26.75-17.66Q27.97-14.59 27.97-11.84L27.97-11.84L27.97-11.84Q27.97-6.02 23.97-2.62L23.97-2.62L23.97-2.62Q19.97 0.77 13.73 0.77L13.73 0.77L13.73 0.77Q7.49 0.77 2.37-3.46L2.37-3.46ZM66.30-26.62L66.30-26.62L66.30-26.62Q66.30-28.80 65.73-30.40L65.73-30.40L69.31-30.85L69.31-30.85Q70.66-29.89 70.66-27.33L70.66-27.33L70.66-27.33Q70.66-24.77 70.53-23.42L70.53-23.42L70.53-23.42Q70.02-19.26 66.69-12.35L66.69-12.35L60.93 0L56.90 0L53.44-12.35L53.44-12.35Q52.80-14.53 53.06-16.70L53.06-16.70L52.67-16.70L52.67-16.70Q52.35-15.17 51.20-12.35L51.20-12.35L46.08 0L42.05 0L36.10-21.18L36.10-21.18Q34.30-27.71 33.02-29.44L33.02-29.44L32.64-30.08L35.97-30.72L35.97-30.72Q36.99-30.72 37.60-29.82L37.60-29.82L37.60-29.82Q38.21-28.93 39.04-26.11L39.04-26.11L44.86-5.57L45.25-5.57L45.25-5.57Q45.18-5.89 45.18-6.66L45.18-6.66L45.18-6.66Q45.18-7.42 45.95-9.15L45.95-9.15L48.13-14.21L48.13-14.21Q50.82-20.48 50.82-26.62L50.82-26.62L50.82-26.62Q50.82-28.61 50.24-30.21L50.24-30.21L53.82-30.66L53.82-30.66Q55.17-29.57 55.17-27.04L55.17-27.04L55.17-27.04Q55.17-24.51 54.91-22.40L54.91-22.40L59.71-5.57L60.10-5.57L60.10-5.57Q60.03-5.89 60.03-6.66L60.03-6.66L60.03-6.66Q60.03-7.42 60.80-9.15L60.80-9.15L62.98-14.21L62.98-14.21Q66.30-21.95 66.30-26.62ZM84.86 0.51L84.86 0.51L84.86 0.51Q81.92 0.51 80.77-0.90L80.77-0.90L80.77-0.90Q79.62-2.30 79.62-5.50L79.62-5.50L79.62-30.08L84.22-30.08L84.22-8.13L84.22-8.13Q84.22-4.74 84.74-3.74L84.74-3.74L84.74-3.74Q85.25-2.75 87.68-2.75L87.68-2.75L87.81 0.06L87.81 0.06Q86.34 0.51 84.86 0.51ZM79.17-40.13L79.17-40.13L79.17-40.13Q79.17-43.14 82.11-43.14L82.11-43.14L82.11-43.14Q84.80-43.14 84.80-40.22L84.80-40.22L84.80-40.22Q84.80-37.31 81.98-37.31L81.98-37.31L81.98-37.31Q79.17-37.31 79.17-40.13ZM98.30-26.69L93.18-26.69L93.18-29.44L98.30-30.08L98.30-34.43L98.30-34.43Q98.30-47.68 108.03-47.68L108.03-47.68L108.03-47.68Q110.14-47.68 111.81-46.85L111.81-46.85L111.17-44.03L111.17-44.03Q110.27-44.29 108.48-44.29L108.48-44.29L108.48-44.29Q106.69-44.29 105.50-43.49L105.50-43.49L105.50-43.49Q104.32-42.69 103.81-41.15L103.81-41.15L103.81-41.15Q102.91-38.72 102.91-34.30L102.91-34.30L102.91-30.08L111.17-30.08L111.17-26.69L102.91-26.69L102.85 5.95L102.85 5.95Q102.85 8.64 102.53 9.82L102.53 9.82L102.53 9.82Q102.21 11.01 101.06 11.20L101.06 11.20L97.47 10.43L97.47 10.43Q98.43 9.28 98.43 5.06L98.43 5.06L98.30-26.69ZM131.01-3.20L131.01-3.20L131.65-0.38L131.65-0.38Q129.28 0.77 125.95 0.77L125.95 0.77L125.95 0.77Q121.22 0.77 119.68-1.79L119.68-1.79L119.68-1.79Q118.14-4.35 118.14-9.92L118.14-9.92L118.14-26.69L113.02-26.69L113.02-29.44L118.14-30.08L118.14-36.74L122.75-37.50L122.75-30.08L131.01-30.08L131.01-26.69L122.75-26.69L122.75-11.33L122.75-11.33Q122.75-5.38 123.78-4.10L123.78-4.10L123.78-4.10Q125.06-2.62 127.23-2.62L127.23-2.62L127.23-2.62Q129.41-2.62 131.01-3.20ZM135.87-3.46L136.90-6.85L136.90-6.85Q141.95-3.39 146.66-3.39L146.66-3.39L146.66-3.39Q151.36-3.39 154.02-5.57L154.02-5.57L154.02-5.57Q156.67-7.74 156.67-11.58L156.67-11.58L156.67-11.58Q156.67-14.72 154.75-16.51L154.75-16.51L154.75-16.51Q152.70-18.50 148.35-20.48L148.35-20.48L148.35-20.48Q147.07-21.12 146.56-21.38L146.56-21.38L146.56-21.38Q142.21-23.42 139.81-26.11L139.81-26.11L139.81-26.11Q137.41-28.80 137.41-33.73L137.41-33.73L137.41-33.73Q137.41-38.66 141.09-41.79L141.09-41.79L141.09-41.79Q144.77-44.93 149.95-44.93L149.95-44.93L149.95-44.93Q155.14-44.93 159.42-43.07L159.42-43.07L158.46-39.55L158.46-39.55Q154.62-40.83 150.98-40.83L150.98-40.83L150.98-40.83Q147.33-40.83 144.83-38.94L144.83-38.94L144.83-38.94Q142.34-37.06 142.34-33.98L142.34-33.98L142.34-33.98Q142.34-30.91 144.06-29.06L144.06-29.06L144.06-29.06Q146.05-27.01 151.10-24.70L151.10-24.70L151.10-24.70Q155.71-22.53 157.38-21.06L157.38-21.06L157.38-21.06Q159.68-18.94 160.26-17.66L160.26-17.66L160.26-17.66Q161.47-14.59 161.47-11.84L161.47-11.84L161.47-11.84Q161.47-6.02 157.47-2.62L157.47-2.62L157.47-2.62Q153.47 0.77 147.23 0.77L147.23 0.77L147.23 0.77Q140.99 0.77 135.87-3.46L135.87-3.46ZM174.53-47.68L174.53-29.44L174.53-29.44Q174.53-26.05 174.02-23.74L174.02-23.74L174.40-23.74L174.40-23.74Q177.02-30.85 184.19-30.85L184.19-30.85L184.19-30.85Q189.25-30.85 191.17-28.32L191.17-28.32L191.17-28.32Q193.09-25.79 193.09-20.74L193.09-20.74L193.09-20.74Q193.09-20.54 192.99-14.21L192.99-14.21L192.99-14.21Q192.90-7.87 192.90-6.14L192.90-6.14L192.90-6.14Q192.90-4.42 193.31-3.58L193.31-3.58L193.31-3.58Q193.73-2.75 196.03-2.75L196.03-2.75L196.16 0.13L196.16 0.13Q195.26 0.51 193.54 0.51L193.54 0.51L193.54 0.51Q190.46 0.51 189.34-0.90L189.34-0.90L189.34-0.90Q188.22-2.30 188.22-5.38L188.22-5.38L188.22-5.38Q188.22-5.50 188.35-12.29L188.35-12.29L188.35-12.29Q188.48-19.07 188.48-19.33L188.48-19.33L188.48-19.33Q188.48-23.04 187.52-25.12L187.52-25.12L187.52-25.12Q186.56-27.20 183.30-27.20L183.30-27.20L183.30-27.20Q180.03-27.20 177.89-24.32L177.89-24.32L177.89-24.32Q175.74-21.44 175.07-17.89L175.07-17.89L175.07-17.89Q174.40-14.34 174.40-10.18L174.40-10.18L174.40 0L169.98 0L169.98-46.91L174.53-47.68ZM222.46-21.82L222.46-21.82L222.46-26.50L222.46-26.50Q220.61-27.46 216.90-27.46L216.90-27.46L216.90-27.46Q207.42-27.46 207.42-13.18L207.42-13.18L207.42-13.18Q207.42-2.75 213.76-2.75L213.76-2.75L213.76-2.75Q216.45-2.75 218.27-4.58L218.27-4.58L218.27-4.58Q220.10-6.40 220.99-9.54L220.99-9.54L220.99-9.54Q222.46-14.98 222.46-21.82ZM213.31 0.77L213.31 0.77L213.31 0.77Q207.74 0.77 205.18-3.07L205.18-3.07L205.18-3.07Q202.62-6.91 202.62-13.98L202.62-13.98L202.62-13.98Q202.62-21.06 206.24-25.95L206.24-25.95L206.24-25.95Q209.86-30.85 216.90-30.85L216.90-30.85L216.90-30.85Q219.39-30.85 221.86-30.34L221.86-30.34L221.86-30.34Q224.32-29.82 226.75-28.86L226.75-28.86L226.75-12.61L226.75-12.61Q226.75-6.08 227.90-4.35L227.90-4.35L227.90-4.35Q228.99-2.62 231.55-2.62L231.55-2.62L231.68 0.26L231.68 0.26Q230.66 0.51 229.12 0.51L229.12 0.51L229.12 0.51Q225.73 0.51 224.26-1.86L224.26-1.86L224.26-1.86Q223.17-3.58 223.17-5.95L223.17-5.95L223.17-5.95Q223.17-6.72 223.30-7.62L223.30-7.62L222.91-7.62L222.91-7.62Q221.82-3.78 219.42-1.50L219.42-1.50L219.42-1.50Q217.02 0.77 213.31 0.77ZM238.27-30.21L242.18-30.66L242.18-30.66Q243.46-30.14 243.46-27.36L243.46-27.36L243.46-27.36Q243.46-24.58 243.01-22.21L243.01-22.21L243.39-22.21L243.39-22.21Q244.80-26.75 246.66-28.80L246.66-28.80L246.66-28.80Q248.51-30.85 252.48-30.85L252.48-30.85L254.46-30.59L253.89-26.18L253.89-26.18Q253.06-26.37 251.84-26.37L251.84-26.37L251.84-26.37Q249.34-26.37 247.58-24.74L247.58-24.74L247.58-24.74Q245.82-23.10 244.99-20.35L244.99-20.35L244.99-20.35Q243.39-15.42 243.39-9.28L243.39-9.28L243.39 0L238.98 0L238.98-20.67L238.98-20.67Q238.98-27.14 238.27-30.21L238.27-30.21ZM277.50-23.49L277.50-23.49L277.50-23.49Q277.50-25.34 276.35-26.30L276.35-26.30L276.35-26.30Q275.20-27.26 273.28-27.26L273.28-27.26L273.28-27.26Q269.44-27.26 267.26-24.10L267.26-24.10L267.26-24.10Q265.09-20.93 264.77-16.45L264.77-16.45L264.77-16.45Q277.50-16.45 277.50-23.49ZM272 0.77L272 0.77L272 0.77Q259.97 0.77 259.97-14.59L259.97-14.59L259.97-14.59Q259.97-21.63 263.52-26.24L263.52-26.24L263.52-26.24Q267.07-30.85 273.54-30.85L273.54-30.85L273.54-30.85Q277.50-30.85 279.84-28.96L279.84-28.96L279.84-28.96Q282.18-27.07 282.18-23.78L282.18-23.78L282.18-23.78Q282.18-20.48 280.61-18.40L280.61-18.40L280.61-18.40Q279.04-16.32 276.35-15.23L276.35-15.23L276.35-15.23Q271.30-13.18 264.64-13.18L264.64-13.18L264.64-13.18Q264.64-3.01 272.77-3.01L272.77-3.01L272.77-3.01Q276.86-3.01 280.51-5.25L280.51-5.25L281.22-2.75L281.22-2.75Q279.62-1.15 277.02-0.19L277.02-0.19L277.02-0.19Q274.43 0.77 272 0.77Z" fill="#000000"></path></g></g><style>text {
  font-size: 64px;
  font-family: Arial Black;
  dominant-baseline: central;
  text-anchor: middle;
}</style></svg>